<svg aria-roledescription="class" role="graphics-document document" viewBox="0 0 451.6640625 567" style="max-width: 451.6640625px;" class="classDiagram" xmlns="http://www.w3.org/2000/svg" width="100%" id="mermaidSvgId"><style>#mermaidSvgId{font-family:"trebuchet ms",verdana,arial,sans-serif;font-size:16px;fill:#000000;}#mermaidSvgId .error-icon{fill:#552222;}#mermaidSvgId .error-text{fill:#552222;stroke:#552222;}#mermaidSvgId .edge-thickness-normal{stroke-width:1px;}#mermaidSvgId .edge-thickness-thick{stroke-width:3.5px;}#mermaidSvgId .edge-pattern-solid{stroke-dasharray:0;}#mermaidSvgId .edge-thickness-invisible{stroke-width:0;fill:none;}#mermaidSvgId .edge-pattern-dashed{stroke-dasharray:3;}#mermaidSvgId .edge-pattern-dotted{stroke-dasharray:2;}#mermaidSvgId .marker{fill:#666;stroke:#666;}#mermaidSvgId .marker.cross{stroke:#666;}#mermaidSvgId svg{font-family:"trebuchet ms",verdana,arial,sans-serif;font-size:16px;}#mermaidSvgId p{margin:0;}#mermaidSvgId g.classGroup text{fill:#999;stroke:none;font-family:"trebuchet ms",verdana,arial,sans-serif;font-size:10px;}#mermaidSvgId g.classGroup text .title{font-weight:bolder;}#mermaidSvgId .nodeLabel,#mermaidSvgId .edgeLabel{color:#111111;}#mermaidSvgId .edgeLabel .label rect{fill:#eee;}#mermaidSvgId .label text{fill:#111111;}#mermaidSvgId .labelBkg{background:#eee;}#mermaidSvgId .edgeLabel .label span{background:#eee;}#mermaidSvgId .classTitle{font-weight:bolder;}#mermaidSvgId .node rect,#mermaidSvgId .node circle,#mermaidSvgId .node ellipse,#mermaidSvgId .node polygon,#mermaidSvgId .node path{fill:#eee;stroke:#999;stroke-width:1px;}#mermaidSvgId .divider{stroke:#999;stroke-width:1;}#mermaidSvgId g.clickable{cursor:pointer;}#mermaidSvgId g.classGroup rect{fill:#eee;stroke:#999;}#mermaidSvgId g.classGroup line{stroke:#999;stroke-width:1;}#mermaidSvgId .classLabel .box{stroke:none;stroke-width:0;fill:#eee;opacity:0.5;}#mermaidSvgId .classLabel .label{fill:#999;font-size:10px;}#mermaidSvgId .relation{stroke:#666;stroke-width:1;fill:none;}#mermaidSvgId .dashed-line{stroke-dasharray:3;}#mermaidSvgId .dotted-line{stroke-dasharray:1 2;}#mermaidSvgId #compositionStart,#mermaidSvgId .composition{fill:#666!important;stroke:#666!important;stroke-width:1;}#mermaidSvgId #compositionEnd,#mermaidSvgId .composition{fill:#666!important;stroke:#666!important;stroke-width:1;}#mermaidSvgId #dependencyStart,#mermaidSvgId .dependency{fill:#666!important;stroke:#666!important;stroke-width:1;}#mermaidSvgId #dependencyStart,#mermaidSvgId .dependency{fill:#666!important;stroke:#666!important;stroke-width:1;}#mermaidSvgId #extensionStart,#mermaidSvgId .extension{fill:transparent!important;stroke:#666!important;stroke-width:1;}#mermaidSvgId #extensionEnd,#mermaidSvgId .extension{fill:transparent!important;stroke:#666!important;stroke-width:1;}#mermaidSvgId #aggregationStart,#mermaidSvgId .aggregation{fill:transparent!important;stroke:#666!important;stroke-width:1;}#mermaidSvgId #aggregationEnd,#mermaidSvgId .aggregation{fill:transparent!important;stroke:#666!important;stroke-width:1;}#mermaidSvgId #lollipopStart,#mermaidSvgId .lollipop{fill:#eee!important;stroke:#666!important;stroke-width:1;}#mermaidSvgId #lollipopEnd,#mermaidSvgId .lollipop{fill:#eee!important;stroke:#666!important;stroke-width:1;}#mermaidSvgId .edgeTerminals{font-size:11px;line-height:initial;}#mermaidSvgId .classTitleText{text-anchor:middle;font-size:18px;fill:#000000;}#mermaidSvgId :root{--mermaid-font-family:"trebuchet ms",verdana,arial,sans-serif;}</style><g><defs><marker orient="auto" markerHeight="240" markerWidth="190" refY="7" refX="18" class="marker aggregation class" id="mermaidSvgId_class-aggregationStart"><path d="M 18,7 L9,13 L1,7 L9,1 Z"></path></marker></defs><defs><marker orient="auto" markerHeight="28" markerWidth="20" refY="7" refX="1" class="marker aggregation class" id="mermaidSvgId_class-aggregationEnd"><path d="M 18,7 L9,13 L1,7 L9,1 Z"></path></marker></defs><defs><marker orient="auto" markerHeight="240" markerWidth="190" refY="7" refX="18" class="marker extension class" id="mermaidSvgId_class-extensionStart"><path d="M 1,7 L18,13 V 1 Z"></path></marker></defs><defs><marker orient="auto" markerHeight="28" markerWidth="20" refY="7" refX="1" class="marker extension class" id="mermaidSvgId_class-extensionEnd"><path d="M 1,1 V 13 L18,7 Z"></path></marker></defs><defs><marker orient="auto" markerHeight="240" markerWidth="190" refY="7" refX="18" class="marker composition class" id="mermaidSvgId_class-compositionStart"><path d="M 18,7 L9,13 L1,7 L9,1 Z"></path></marker></defs><defs><marker orient="auto" markerHeight="28" markerWidth="20" refY="7" refX="1" class="marker composition class" id="mermaidSvgId_class-compositionEnd"><path d="M 18,7 L9,13 L1,7 L9,1 Z"></path></marker></defs><defs><marker orient="auto" markerHeight="240" markerWidth="190" refY="7" refX="6" class="marker dependency class" id="mermaidSvgId_class-dependencyStart"><path d="M 5,7 L9,13 L1,7 L9,1 Z"></path></marker></defs><defs><marker orient="auto" markerHeight="28" markerWidth="20" refY="7" refX="13" class="marker dependency class" id="mermaidSvgId_class-dependencyEnd"><path d="M 18,7 L9,13 L14,7 L9,1 Z"></path></marker></defs><defs><marker orient="auto" markerHeight="240" markerWidth="190" refY="7" refX="13" class="marker lollipop class" id="mermaidSvgId_class-lollipopStart"><circle r="6" cy="7" cx="7" fill="transparent" stroke="black"></circle></marker></defs><defs><marker orient="auto" markerHeight="240" markerWidth="190" refY="7" refX="1" class="marker lollipop class" id="mermaidSvgId_class-lollipopEnd"><circle r="6" cy="7" cx="7" fill="transparent" stroke="black"></circle></marker></defs><g class="root"><g class="clusters"></g><g class="edgePaths"><path marker-end="url(#mermaidSvgId_class-dependencyEnd)" style=";" class="edge-thickness-normal edge-pattern-solid relation" id="id_User_Role_1" d="M139.128,291L134.978,297.083C130.829,303.167,122.53,315.333,118.38,330.167C114.23,345,114.23,362.5,114.23,371.25L114.23,380"></path><path marker-end="url(#mermaidSvgId_class-dependencyEnd)" style=";" class="edge-thickness-normal edge-pattern-solid relation" id="id_User_Token_2" d="M332.165,291L336.315,297.083C340.464,303.167,348.763,315.333,352.913,326.5C357.063,337.667,357.063,347.833,357.063,352.917L357.063,358"></path></g><g class="edgeLabels"><g transform="translate(114.23046875, 327.5)" class="edgeLabel"><g transform="translate(-14.07421875, -11.5)" class="label"><g><rect height="23" width="28.1484375" y="-1" x="-2" style=";display: inline-block" class="background"></rect><text style=";display: inline-block" y="-10.1"><tspan dy="1.1em" y="-0.1em" x="0" class="text-outer-tspan"><tspan font-weight="normal" class="text-inner-tspan" font-style="normal">has</tspan></tspan></text></g></g></g><g transform="translate(357.0625, 327.5)" class="edgeLabel"><g transform="translate(-37.4609375, -11.5)" class="label"><g><rect height="23" width="74.921875" y="-1" x="-2" style=";display: inline-block" class="background"></rect><text style=";display: inline-block" y="-10.1"><tspan dy="1.1em" y="-0.1em" x="0" class="text-outer-tspan"><tspan font-weight="normal" class="text-inner-tspan" font-style="normal">generates</tspan></tspan></text></g></g></g><g transform="translate(116.87456262587077, 297.0044603638825)" class="edgeTerminals"><g transform="translate(-2.890625, -6)" class="inner"><text style=";display: inline-block"><tspan class="row" x="0" dy="1em" xml:space="preserve">1</tspan></text></g></g><g transform="translate(329.6349791726568, 313.90954000172354)" class="edgeTerminals"><g transform="translate(-2.890625, -6)" class="inner"><text style=";display: inline-block"><tspan class="row" x="0" dy="1em" xml:space="preserve">1</tspan></text></g></g><g transform="translate(124.23046937499998, 363.50000053571426)" class="edgeTerminals"><g transform="translate(-2.5234375, -6)" class="inner"></g><text style=";display: inline-block"><tspan class="row" x="0" dy="1em" xml:space="preserve">*</tspan></text></g><g transform="translate(367.0625, 341.5)" class="edgeTerminals"><g transform="translate(-9.8125, -6)" class="inner"></g><text style=";display: inline-block"><tspan class="row" x="0" dy="1em" xml:space="preserve">0..1</tspan></text></g></g><g class="nodes"><g transform="translate(235.646484375, 149.5)" id="classId-User-87" class="node default"><g class="basic label-container"><path style="" fill="#eee" stroke-width="0" stroke="none" d="M-104.501953125 -141.5 L104.501953125 -141.5 L104.501953125 141.5 L-104.501953125 141.5"></path><path style="" fill="none" stroke-width="1.3" stroke="#999" d="M-104.501953125 -141.5 C-31.605973028192835 -141.5, 41.29000706861433 -141.5, 104.501953125 -141.5 M-104.501953125 -141.5 C-39.016471027773974 -141.5, 26.46901106945205 -141.5, 104.501953125 -141.5 M104.501953125 -141.5 C104.501953125 -36.70533547631861, 104.501953125 68.08932904736278, 104.501953125 141.5 M104.501953125 -141.5 C104.501953125 -71.12497690813446, 104.501953125 -0.7499538162689134, 104.501953125 141.5 M104.501953125 141.5 C31.63272088736015 141.5, -41.2365113502797 141.5, -104.501953125 141.5 M104.501953125 141.5 C34.42774148158743 141.5, -35.646470161825135 141.5, -104.501953125 141.5 M-104.501953125 141.5 C-104.501953125 32.89573704884329, -104.501953125 -75.70852590231343, -104.501953125 -141.5 M-104.501953125 141.5 C-104.501953125 36.193132497516046, -104.501953125 -69.11373500496791, -104.501953125 -141.5"></path></g><g transform="translate(0, -121.5)" class="annotation-group text"></g><g transform="translate(-17.46484375, -121.5)" class="label-group text"><g transform="translate(0,-9.5)" style="font-weight: bolder" class="label"><g><rect style="stroke: none" class="background"></rect><text style="" y="-10.1"><tspan font-weight="" dy="1.1em" y="-0.1em" x="0" class="text-outer-tspan"><tspan font-weight="" class="text-inner-tspan" font-style="normal">User</tspan></tspan></text></g></g></g><g transform="translate(-92.501953125, -78.5)" class="members-group text"><g transform="translate(0,-9.5)" style="" class="label"><g><rect style="stroke: none" class="background"></rect><text style="" y="-10.1"><tspan dy="1.1em" y="-0.1em" x="0" class="text-outer-tspan"><tspan font-weight="normal" class="text-inner-tspan" font-style="normal">-String</tspan><tspan font-weight="normal" class="text-inner-tspan" font-style="normal"> name</tspan></tspan></text></g></g><g transform="translate(0,12.5)" style="" class="label"><g><rect style="stroke: none" class="background"></rect><text style="" y="-10.1"><tspan dy="1.1em" y="-0.1em" x="0" class="text-outer-tspan"><tspan font-weight="normal" class="text-inner-tspan" font-style="normal">-String</tspan><tspan font-weight="normal" class="text-inner-tspan" font-style="normal"> email</tspan></tspan></text></g></g><g transform="translate(0,34.5)" style="" class="label"><g><rect style="stroke: none" class="background"></rect><text style="" y="-10.1"><tspan dy="1.1em" y="-0.1em" x="0" class="text-outer-tspan"><tspan font-weight="normal" class="text-inner-tspan" font-style="normal">-String</tspan><tspan font-weight="normal" class="text-inner-tspan" font-style="normal"> hashedPassword</tspan></tspan></text></g></g><g transform="translate(0,56.5)" style="" class="label"><g><rect style="stroke: none" class="background"></rect><text style="" y="-10.1"><tspan dy="1.1em" y="-0.1em" x="0" class="text-outer-tspan"><tspan font-weight="normal" class="text-inner-tspan" font-style="normal">-List</tspan><tspan font-weight="normal" class="text-inner-tspan" font-style="normal"> roles</tspan></tspan></text></g></g><g transform="translate(0,78.5)" style="" class="label"><g><rect style="stroke: none" class="background"></rect><text style="" y="-10.1"><tspan dy="1.1em" y="-0.1em" x="0" class="text-outer-tspan"><tspan font-weight="normal" class="text-inner-tspan" font-style="normal">-bool</tspan><tspan font-weight="normal" class="text-inner-tspan" font-style="normal"> verified</tspan></tspan></text></g></g></g><g transform="translate(-92.501953125, 52.5)" class="methods-group text"><g transform="translate(0,-9.5)" style="" class="label"><g><rect style="stroke: none" class="background"></rect><text style="" y="-10.1"><tspan dy="1.1em" y="-0.1em" x="0" class="text-outer-tspan"><tspan font-weight="normal" class="text-inner-tspan" font-style="normal">+register()</tspan></tspan></text></g></g><g transform="translate(0,12.5)" style="" class="label"><g><rect style="stroke: none" class="background"></rect><text style="" y="-10.1"><tspan dy="1.1em" y="-0.1em" x="0" class="text-outer-tspan"><tspan font-weight="normal" class="text-inner-tspan" font-style="normal">+login()</tspan></tspan></text></g></g><g transform="translate(0,34.5)" style="" class="label"><g><rect style="stroke: none" class="background"></rect><text style="" y="-10.1"><tspan dy="1.1em" y="-0.1em" x="0" class="text-outer-tspan"><tspan font-weight="normal" class="text-inner-tspan" font-style="normal">+logout()</tspan></tspan></text></g></g><g transform="translate(0,56.5)" style="" class="label"><g><rect style="stroke: none" class="background"></rect><text style="" y="-10.1"><tspan dy="1.1em" y="-0.1em" x="0" class="text-outer-tspan"><tspan font-weight="normal" class="text-inner-tspan" font-style="normal">+verify()</tspan></tspan></text></g></g></g><g style="" class="divider"><path style="" fill="none" stroke-width="1.3" stroke="#999" d="M-104.501953125 -98.5 C-45.73436989563836 -98.5, 13.033213333723282 -98.5, 104.501953125 -98.5 M-104.501953125 -98.5 C-30.295417126970293 -98.5, 43.911118871059415 -98.5, 104.501953125 -98.5"></path></g><g style="" class="divider"><path style="" fill="none" stroke-width="1.3" stroke="#999" d="M-104.501953125 32.5 C-25.851691844453512 32.5, 52.798569436092976 32.5, 104.501953125 32.5 M-104.501953125 32.5 C-41.60032444683399 32.5, 21.301304231332026 32.5, 104.501953125 32.5"></path></g></g><g transform="translate(114.23046875, 461.5)" id="classId-Role-88" class="node default"><g class="basic label-container"><path style="" fill="#eee" stroke-width="0" stroke="none" d="M-106.23046875 -75.5 L106.23046875 -75.5 L106.23046875 75.5 L-106.23046875 75.5"></path><path style="" fill="none" stroke-width="1.3" stroke="#999" d="M-106.23046875 -75.5 C-56.48198636002814 -75.5, -6.733503970056276 -75.5, 106.23046875 -75.5 M-106.23046875 -75.5 C-33.55595597194542 -75.5, 39.118556806109154 -75.5, 106.23046875 -75.5 M106.23046875 -75.5 C106.23046875 -33.36095081487232, 106.23046875 8.778098370255364, 106.23046875 75.5 M106.23046875 -75.5 C106.23046875 -25.243165348876403, 106.23046875 25.013669302247195, 106.23046875 75.5 M106.23046875 75.5 C27.183460017089644 75.5, -51.86354871582071 75.5, -106.23046875 75.5 M106.23046875 75.5 C27.650036729065462 75.5, -50.930395291869075 75.5, -106.23046875 75.5 M-106.23046875 75.5 C-106.23046875 16.978709635457115, -106.23046875 -41.54258072908577, -106.23046875 -75.5 M-106.23046875 75.5 C-106.23046875 43.192083776329646, -106.23046875 10.884167552659292, -106.23046875 -75.5"></path></g><g transform="translate(0, -55.5)" class="annotation-group text"></g><g transform="translate(-16.375, -55.5)" class="label-group text"><g transform="translate(0,-9.5)" style="font-weight: bolder" class="label"><g><rect style="stroke: none" class="background"></rect><text style="" y="-10.1"><tspan font-weight="" dy="1.1em" y="-0.1em" x="0" class="text-outer-tspan"><tspan font-weight="" class="text-inner-tspan" font-style="normal">Role</tspan></tspan></text></g></g></g><g transform="translate(-94.23046875, -12.5)" class="members-group text"><g transform="translate(0,-9.5)" style="" class="label"><g><rect style="stroke: none" class="background"></rect><text style="" y="-10.1"><tspan dy="1.1em" y="-0.1em" x="0" class="text-outer-tspan"><tspan font-weight="normal" class="text-inner-tspan" font-style="normal">-String</tspan><tspan font-weight="normal" class="text-inner-tspan" font-style="normal"> name</tspan></tspan></text></g></g></g><g transform="translate(-94.23046875, 30.5)" class="methods-group text"><g transform="translate(0,-9.5)" style="" class="label"><g><rect style="stroke: none" class="background"></rect><text style="" y="-10.1"><tspan dy="1.1em" y="-0.1em" x="0" class="text-outer-tspan"><tspan font-weight="normal" class="text-inner-tspan" font-style="normal">+assignToUser(user)</tspan></tspan></text></g></g><g transform="translate(0,12.5)" style="" class="label"><g><rect style="stroke: none" class="background"></rect><text style="" y="-10.1"><tspan dy="1.1em" y="-0.1em" x="0" class="text-outer-tspan"><tspan font-weight="normal" class="text-inner-tspan" font-style="normal">+removeFromUser(user)</tspan></tspan></text></g></g></g><g style="" class="divider"><path style="" fill="none" stroke-width="1.3" stroke="#999" d="M-106.23046875 -32.5 C-24.452710147731466 -32.5, 57.32504845453707 -32.5, 106.23046875 -32.5 M-106.23046875 -32.5 C-39.6274154782034 -32.5, 26.975637793593194 -32.5, 106.23046875 -32.5"></path></g><g style="" class="divider"><path style="" fill="none" stroke-width="1.3" stroke="#999" d="M-106.23046875 10.5 C-56.6985609380073 10.5, -7.1666531260145945 10.5, 106.23046875 10.5 M-106.23046875 10.5 C-51.85567774621429 10.5, 2.5191132575714192 10.5, 106.23046875 10.5"></path></g></g><g transform="translate(357.0625, 461.5)" id="classId-Token-89" class="node default"><g class="basic label-container"><path style="" fill="#eee" stroke-width="0" stroke="none" d="M-86.6015625 -97.5 L86.6015625 -97.5 L86.6015625 97.5 L-86.6015625 97.5"></path><path style="" fill="none" stroke-width="1.3" stroke="#999" d="M-86.6015625 -97.5 C-21.70783322076585 -97.5, 43.1858960584683 -97.5, 86.6015625 -97.5 M-86.6015625 -97.5 C-45.199862933216544 -97.5, -3.798163366433087 -97.5, 86.6015625 -97.5 M86.6015625 -97.5 C86.6015625 -39.508277573802836, 86.6015625 18.483444852394328, 86.6015625 97.5 M86.6015625 -97.5 C86.6015625 -38.12070515753695, 86.6015625 21.258589684926093, 86.6015625 97.5 M86.6015625 97.5 C21.780663936100808 97.5, -43.040234627798384 97.5, -86.6015625 97.5 M86.6015625 97.5 C35.26648839075746 97.5, -16.06858571848508 97.5, -86.6015625 97.5 M-86.6015625 97.5 C-86.6015625 19.764603469584017, -86.6015625 -57.970793060831966, -86.6015625 -97.5 M-86.6015625 97.5 C-86.6015625 51.942011151394155, -86.6015625 6.38402230278831, -86.6015625 -97.5"></path></g><g transform="translate(0, -77.5)" class="annotation-group text"></g><g transform="translate(-22.59375, -77.5)" class="label-group text"><g transform="translate(0,-9.5)" style="font-weight: bolder" class="label"><g><rect style="stroke: none" class="background"></rect><text style="" y="-10.1"><tspan font-weight="" dy="1.1em" y="-0.1em" x="0" class="text-outer-tspan"><tspan font-weight="" class="text-inner-tspan" font-style="normal">Token</tspan></tspan></text></g></g></g><g transform="translate(-74.6015625, -34.5)" class="members-group text"><g transform="translate(0,-9.5)" style="" class="label"><g><rect style="stroke: none" class="background"></rect><text style="" y="-10.1"><tspan dy="1.1em" y="-0.1em" x="0" class="text-outer-tspan"><tspan font-weight="normal" class="text-inner-tspan" font-style="normal">-String</tspan><tspan font-weight="normal" class="text-inner-tspan" font-style="normal"> value</tspan></tspan></text></g></g><g transform="translate(0,12.5)" style="" class="label"><g><rect style="stroke: none" class="background"></rect><text style="" y="-10.1"><tspan dy="1.1em" y="-0.1em" x="0" class="text-outer-tspan"><tspan font-weight="normal" class="text-inner-tspan" font-style="normal">-User</tspan><tspan font-weight="normal" class="text-inner-tspan" font-style="normal"> user</tspan></tspan></text></g></g><g transform="translate(0,34.5)" style="" class="label"><g><rect style="stroke: none" class="background"></rect><text style="" y="-10.1"><tspan dy="1.1em" y="-0.1em" x="0" class="text-outer-tspan"><tspan font-weight="normal" class="text-inner-tspan" font-style="normal">-Date</tspan><tspan font-weight="normal" class="text-inner-tspan" font-style="normal"> expiryAt</tspan></tspan></text></g></g></g><g transform="translate(-74.6015625, 52.5)" class="methods-group text"><g transform="translate(0,-9.5)" style="" class="label"><g><rect style="stroke: none" class="background"></rect><text style="" y="-10.1"><tspan dy="1.1em" y="-0.1em" x="0" class="text-outer-tspan"><tspan font-weight="normal" class="text-inner-tspan" font-style="normal">+generateToken()</tspan></tspan></text></g></g><g transform="translate(0,12.5)" style="" class="label"><g><rect style="stroke: none" class="background"></rect><text style="" y="-10.1"><tspan dy="1.1em" y="-0.1em" x="0" class="text-outer-tspan"><tspan font-weight="normal" class="text-inner-tspan" font-style="normal">+validateToken()</tspan></tspan></text></g></g></g><g style="" class="divider"><path style="" fill="none" stroke-width="1.3" stroke="#999" d="M-86.6015625 -54.5 C-33.305798184918395 -54.5, 19.98996613016321 -54.5, 86.6015625 -54.5 M-86.6015625 -54.5 C-34.591472387268546 -54.5, 17.41861772546291 -54.5, 86.6015625 -54.5"></path></g><g style="" class="divider"><path style="" fill="none" stroke-width="1.3" stroke="#999" d="M-86.6015625 32.5 C-29.055907242600718 32.5, 28.489748014798565 32.5, 86.6015625 32.5 M-86.6015625 32.5 C-50.648562661761545 32.5, -14.69556282352309 32.5, 86.6015625 32.5"></path></g></g></g></g></g></svg>